Genre:Horror 
Language:English
IMDb:http://www.imdb.com/title/tt1297298/
Source:1080p.BluRay.x264.MELiTE


Format : MPEG-4
Format profile : Base Media
Codec ID : isom
File size : 1.72 GiB
Duration : 1h 18mn
Overall bit rate : 3 132 Kbps


Video
Format settings, CABAC : Yes
Format settings, ReFrames : 3 frames
Format settings, GOP : M=1, N=11
Codec ID : avc1
Codec ID/Info : Advanced Video Coding
Duration : 1h 18mn
Bit rate mode : Variable
Bit rate : 2 789 Kbps
Maximum bit rate : 23.9 Mbps
Width : 1 280 pixels
Height : 720 pixels
Display aspect ratio : 16:9
Frame rate mode : Constant
Frame rate : 23.976 fps
Color space : YUV
Chroma subsampling : 4:2:0
Bit depth : 8 bits
Scan type : Progressive
Bits/(Pixel*Frame) : 0.126
Stream size : 1.49 GiB (87%)
Writing library : x264

Audio
ID : 2
Format : AAC
Format/Info : Advanced Audio Codec
Format version : Version 4
Format profile : LC
Format settings, SBR : No
Codec ID : 40
Duration : 1h 18mn
Bit rate mode : Variable
Bit rate : 411 Kbps
Maximum bit rate : 572 Kbps
Channel(s) : 6 channels
Channel positions : Front: L C R, Side: L R, LFE
Sampling rate : 48.0 KHz
Stream size : 231 MiB (13%)


Plot:
When a container washes ashore the residents of a sleepy cul-de-sac are plunged into violence, terror and paranoia. Ring fenced by the military a single mother must overcome all the odds to save her daughter.







================================== 
http://thepiratebay.org/user/hiest
==================================






Screenshots:
 
http://rapidhdd.com/images/139843vlcsnap-00001.png
 
http://www.rapidhdd.com/images/663199vlcsnap-00003.png
 
http://www.rapidhdd.com/images/829483vlcsnap-00005.png
 
http://www.rapidhdd.com/images/241181vlcsnap-00002.png